<?xml version="1.0" encoding="utf-8"?>
<!-- Generator: Adobe Illustrator 19.0.0, SVG Export Plug-In . SVG Version: 6.00 Build 0)  -->
<svg version="1.1" id="Layer_1" xmlns="http://www.w3.org/2000/svg" xmlns:xlink="http://www.w3.org/1999/xlink" x="0px" y="0px"
	 viewBox="0 0 960 206" style="enable-background:new 0 0 960 206;" xml:space="preserve">
<style type="text/css">
	.st0{fill:#FFFFFF;}
</style>
<path id="XMLID_1_" class="st0" d="M116.2,14.7C102.8,5.2,86.8,4,65.9,4H0v198h49v-64h13.5c20.7,0,36.3-1.3,48.9-8.8
	c19.8-12,31.6-33.1,31.6-58.8C143,45.6,133.8,27,116.2,14.7z M58.1,95H49V48h13c21.5,0,31.8,6.6,31.8,23.1C93.8,89,82.1,95,58.1,95z
	 M256.4,0c-28.2,0-52.8,9.8-72.3,29c-19.5,19.3-30.2,44.4-30.2,71.8c0,29.3,9.5,53.9,28.2,73.7c19.5,20.7,44.7,31.3,74,31.3
	c27.6,0,53.9-10.9,73.2-31c18.7-19.3,28.8-44.7,28.8-73.2c0-27.1-10.6-52.5-30.7-72.3C308,10.3,282.9,0,256.4,0z M256.1,156.7
	c-27.4,0-52.2-24-52.2-55.3c0-29,23.2-52.2,52.8-52.2c27.9,0,51.1,23.2,51.1,52.2C307.8,133.8,284.6,156.7,256.1,156.7z M557.1,4
	h52.2l-53.6,198H511L480.5,91.1L449.8,202h-44.7L351.5,4H404l26.5,113.7L459,4h43l28.2,113.7L557.1,4z M618,4h108v43h-59v33h59v44
	h-59v34h59v44H618V4z M851.5,134c28.2-7.8,45-31.8,45-63.9c0-24.6-9.2-43.1-26.8-55.4C856.3,5.2,840.4,4,819.4,4H754v198h48v-63.8
	l38.1,63.8h60L851.5,134z M811.6,95H802V48h13.5c21.5,0,31.8,6.6,31.8,23.1C847.3,89,835.6,95,811.6,95z"/>
</svg>
