<?xml version="1.0" encoding="utf-8"?>
<!-- Generator: Adobe Illustrator 19.0.0, SVG Export Plug-In . SVG Version: 6.00 Build 0)  -->
<svg version="1.1" id="Layer_1" xmlns="http://www.w3.org/2000/svg" xmlns:xlink="http://www.w3.org/1999/xlink" x="0px" y="0px"
	 viewBox="0 0 960 206" style="enable-background:new 0 0 960 206;" xml:space="preserve">
<style type="text/css">
	.st0{fill:#FFFFFF;}
</style>
<path id="XMLID_39_" class="st0" d="M107.8,95.2c17.9-8.9,25.6-22.4,25.6-43.8C133.4,19.1,111.8,1,70,1H0v205h62.2
	c27.1,0,45.8-1.8,60.8-15.4c13-11.8,19.9-28.9,19.9-48.2C142.9,117.7,131.4,102.4,107.8,95.2z M48,44h16.8c15.6,0,23,5.5,23,19
	c0,13.3-8.6,17-27.4,17H48V44z M65.4,163H48v-43h16.5c19.9,0,28.8,4.5,28.8,21.8C93.3,158.5,84.4,163,65.4,163z M387.2,1
	l-76.6,199.5l-46.4-65c29.1-8.1,46.4-32.9,46.4-66c0-25.4-9.5-44.6-27.7-57.3C269.1,2.4,252.7,1,231.1,1H163v205h50v-66.2l39.4,66.2
	h56.1h5.8h48.9l10.4-30h67.7l10.1,30h55.3L428.1,1H387.2z M223,95h-10V47h14c22.2,0,32.8,6.6,32.8,23.6C259.9,89,247.8,95,223,95z
	 M387.2,134l20.5-65.7l20.2,65.7H387.2z M633,1h50v205h-43.6L563,91.7V206h-50V1h45.1L633,114.7V1z M858.4,25.5
	C837.1,5.3,814.3,1,781.7,1H712v205h76.7c28.8,0,48.1-4.1,70-25.5c19.6-19.3,29.7-45,29.7-76.1C888.3,70.7,878,43.9,858.4,25.5z
	 M782,161h-20V45h19.7c36.9,0,56.8,20.8,56.8,57.7C838.5,143,820.3,161,782,161z M951.4,9.1c-5.9-6-13.5-9.1-21.9-9.1
	c-11,0-20.5,5.5-25.9,14.7c-3,5.1-4.4,10.4-4.4,15.9c0,7.9,3,15.4,8.7,21.2c5.9,6,13.5,9.2,21.6,9.2c7.9,0,15.6-3.1,21.6-8.9
	c5.8-5.6,9-13.2,9-21.6C960,22.4,957,14.8,951.4,9.1z M947.5,48.5c-5,4.8-11.4,7.5-18,7.5c-6.7,0-13.2-2.8-18-7.7
	c-4.8-4.8-7.3-11.1-7.3-17.8s2.8-13.3,7.7-18.2c4.8-4.8,10.8-7.2,17.7-7.2c7,0,13.3,2.6,18.2,7.6c4.8,4.9,7.2,11,7.2,18.3
	C955,37.5,952.3,43.9,947.5,48.5z M944.6,22.7c0-6.5-4.8-9.7-14.4-9.7H917v34h8V33h4.1l6.5,14h9.1l-7.5-15.2
	C941.8,30.6,944.6,27.2,944.6,22.7z M929.1,28H925V18h3.7c4.9,0,7.4,1.6,7.4,5.1C936.1,26.5,933.8,28,929.1,28z"/>
</svg>
