<svg xmlns="http://www.w3.org/2000/svg" xmlns:xlink="http://www.w3.org/1999/xlink" width="83.46" height="39.029" viewBox="0 0 83.46 39.029">
  <defs>
    <clipPath id="clip-path">
      <rect width="83.46" height="39.029" fill="none"/>
    </clipPath>
    <clipPath id="clip-path-2">
      <path id="Clip_2" data-name="Clip 2" d="M0,0H12.424V17.809H0Z" transform="translate(0 0.052)" fill="none"/>
    </clipPath>
    <clipPath id="clip-path-3">
      <path id="Clip_13" data-name="Clip 13" d="M0,0H18.31V18.461H0Z" transform="translate(0.83 0.539)" fill="none"/>
    </clipPath>
    <clipPath id="clip-path-4">
      <path id="Clip_22" data-name="Clip 22" d="M0,0H5.293V5.3H0Z" transform="translate(0.167 0.971)" fill="none"/>
    </clipPath>
  </defs>
  <g id="Brand_Power_Logo" data-name="Brand Power Logo" clip-path="url(#clip-path)">
    <g id="Brand_Power_Logo-2" data-name="Brand Power Logo" transform="translate(0 -1)">
      <g id="Group_3" data-name="Group 3" transform="translate(0 1.029)">
        <path id="Clip_2-2" data-name="Clip 2" d="M0,0H12.424V17.809H0Z" transform="translate(0 0.052)" fill="none"/>
        <g id="Group_3-2" data-name="Group 3" clip-path="url(#clip-path-2)">
          <path id="Fill_1" data-name="Fill 1" d="M5.411,17.809H0V0H6.087A6.463,6.463,0,0,1,10.2,1.14,3.94,3.94,0,0,1,11.6,4.383a3.8,3.8,0,0,1-2.23,3.808A3.9,3.9,0,0,1,12.424,12.3,5.551,5.551,0,0,1,10.7,16.482C9.336,17.711,7.574,17.809,5.411,17.809Zm-1.2-7.489v3.757H5.686A3.184,3.184,0,0,0,7.52,13.7a1.642,1.642,0,0,0,.6-1.472c0-1.4-.656-1.9-2.506-1.9Zm0-6.588V6.913H5.26c1.735,0,2.381-.407,2.381-1.5,0-1.16-.618-1.678-2-1.678Z" transform="translate(0 0.052)" fill="#fff"/>
        </g>
      </g>
      <path id="Fill_4" data-name="Fill 4" d="M4.359,17.811H0V0H5.912c1.981,0,3.354.16,4.509.977a5.709,5.709,0,0,1,2.4,4.984A5.546,5.546,0,0,1,8.792,11.7l4.03,5.652L19.484,0h3.557l6.838,17.809H25.07l-.878-2.58H18.307l-.9,2.58H7.765L4.359,12.074V17.81Zm16.9-11.974-1.778,5.71h3.53ZM4.359,3.984V8.216H5.21c2.278,0,3.207-.624,3.207-2.154,0-1.437-.881-2.078-2.856-2.078Z" transform="translate(14.178 1.081)" fill="#fff"/>
      <path id="Fill_6" data-name="Fill 6" d="M0,17.81V0H3.933L10.47,9.894V0h4.359V17.81H11L4.358,7.891V17.81Z" transform="translate(44.591 1.081)" fill="#fff"/>
      <path id="Fill_8" data-name="Fill 8" d="M6.688,17.81H0V0H6.087c2.794,0,4.78.348,6.664,2.129a7.8,7.8,0,0,1,1.94,2.934,11.014,11.014,0,0,1,.663,3.929,8.912,8.912,0,0,1-2.579,6.613C10.872,17.459,9.167,17.81,6.688,17.81ZM4.358,3.832V13.9H6.112a4.947,4.947,0,0,0,3.7-1.215,5.268,5.268,0,0,0,1.206-3.846c0-3.23-1.753-5.009-4.935-5.009Z" transform="translate(61.875 1.081)" fill="#fff"/>
      <path id="Fill_10" data-name="Fill 10" d="M4.358,17.81H0V0H5.912C7.894,0,9.267.16,10.42.977a5.732,5.732,0,0,1,2.4,5.009,5.988,5.988,0,0,1-2.831,5.285,8.38,8.38,0,0,1-4.383.8H4.358v5.737Zm.05-13.827V8.216h.8c2.277,0,3.206-.624,3.206-2.154,0-1.438-.88-2.079-2.855-2.079Z" transform="translate(0.025 21.894)" fill="#fff"/>
      <g id="Group_14" data-name="Group 14" transform="translate(13 21.029)">
        <path id="Clip_13-2" data-name="Clip 13" d="M0,0H18.31V18.461H0Z" transform="translate(0.83 0.539)" fill="none"/>
        <g id="Group_14-2" data-name="Group 14" clip-path="url(#clip-path-3)">
          <path id="Fill_12" data-name="Fill 12" d="M9.167,18.461a8.8,8.8,0,0,1-6.638-2.806A9.307,9.307,0,0,1,0,9.042,8.954,8.954,0,0,1,.695,5.551,9.052,9.052,0,0,1,2.705,2.6,8.917,8.917,0,0,1,9.192,0a9.027,9.027,0,0,1,6.363,2.63,9.279,9.279,0,0,1,2.054,3,8.907,8.907,0,0,1,.7,3.488A9.218,9.218,0,0,1,15.73,15.68,9,9,0,0,1,9.167,18.461Zm.05-14.053A4.734,4.734,0,0,0,5.854,5.773,4.64,4.64,0,0,0,4.483,9.093,5.035,5.035,0,0,0,5.9,12.624a4.6,4.6,0,0,0,3.263,1.428,4.489,4.489,0,0,0,3.274-1.39A5.111,5.111,0,0,0,13.8,9.093,4.64,4.64,0,0,0,9.217,4.408Z" transform="translate(0.83 0.539)" fill="#fff"/>
        </g>
      </g>
      <path id="Fill_15" data-name="Fill 15" d="M4.809,17.81,0,0H4.709L7.088,10.195,9.643,0H13.5l2.53,10.195L18.435,0H23.12L18.31,17.81H14.3l-2.73-9.944L8.817,17.81Z" transform="translate(31.559 21.894)" fill="#fff"/>
      <path id="Fill_17" data-name="Fill 17" d="M0,17.81V0H9.668V3.933H4.358v2.88h5.31v3.958H4.358v3.106h5.31V17.81Z" transform="translate(55.488 21.894)" fill="#fff"/>
      <path id="Fill_19" data-name="Fill 19" d="M4.358,17.811H0V0H5.912C7.894,0,9.267.16,10.42.977a5.705,5.705,0,0,1,2.4,4.984A5.547,5.547,0,0,1,8.792,11.7l4.357,6.11-5.384,0L4.358,12.073V17.81Zm0-13.828V8.216H5.21c2.278,0,3.207-.624,3.207-2.154,0-1.438-.881-2.079-2.856-2.079Z" transform="translate(67.618 21.894)" fill="#fff"/>
      <g id="Group_23" data-name="Group 23" transform="translate(78 0.029)">
        <path id="Clip_22-2" data-name="Clip 22" d="M0,0H5.293V5.3H0Z" transform="translate(0.167 0.971)" fill="none"/>
        <g id="Group_23-2" data-name="Group 23" clip-path="url(#clip-path-4)">
          <path id="Fill_21" data-name="Fill 21" d="M2.639,5.3A2.631,2.631,0,0,1,.758,4.5,2.612,2.612,0,0,1,0,2.654,2.687,2.687,0,0,1,.386,1.276,2.557,2.557,0,0,1,2.639,0,2.636,2.636,0,0,1,5.293,2.654a2.583,2.583,0,0,1-.781,1.874A2.676,2.676,0,0,1,2.639,5.3ZM2.646.437a2.1,2.1,0,0,0-1.538.626,2.234,2.234,0,0,0-.67,1.582,2.166,2.166,0,0,0,.634,1.546,2.183,2.183,0,0,0,1.567.67,2.274,2.274,0,0,0,1.567-.649A2.123,2.123,0,0,0,4.855,2.69,2.186,2.186,0,0,0,4.228,1.1,2.149,2.149,0,0,0,2.646.437ZM2.259,4.069H1.546V1.13H2.7c.832,0,1.254.285,1.254.846a.783.783,0,0,1-.641.779l.655,1.31-.795,0-.561-1.2H2.26v1.2Zm0-2.487v.853h.35c.418,0,.6-.129.6-.417s-.2-.436-.642-.436Z" transform="translate(0.167 0.971)" fill="#fff"/>
        </g>
      </g>
    </g>
  </g>
</svg>
